HIERARCHY
ROOT Hips
{
  OFFSET 0.0000 0.0000 0.0000
  CHANNELS 6 Xposition Yposition Zposition Zrotation Xrotation Yrotation
  JOINT Chest
  {
    OFFSET -0.1728 10.2870 0.1254
    CHANNELS 3 Zrotation Xrotation Yrotation
    JOINT Chest2
    {
      OFFSET 0.3229 15.8173 -2.6440
      CHANNELS 3 Zrotation Xrotation Yrotation
      JOINT LeftCollar
      {
        OFFSET -0.0683 16.8828 0.2989
        CHANNELS 3 Zrotation Xrotation Yrotation
        JOINT LeftShoulder
        {
          OFFSET 16.0110 -3.0750 2.0528
          CHANNELS 3 Zrotation Xrotation Yrotation
          JOINT LeftElbow
          {
            OFFSET 2.6153 -25.4187 1.7231
            CHANNELS 3 Zrotation Xrotation Yrotation
            JOINT LeftWrist
            {
              OFFSET 2.3595 -22.4741 1.0488
              CHANNELS 3 Zrotation Xrotation Yrotation
              End Site
              {
                  OFFSET 1.4871 -13.9919 1.1523
              }
            }
          }
        }
      }
      JOINT RightCollar
      {
        OFFSET -0.0683 16.8828 0.2989
        CHANNELS 3 Zrotation Xrotation Yrotation
        JOINT RightShoulder
        {
          OFFSET -16.3743 -2.4390 2.0841
          CHANNELS 3 Zrotation Xrotation Yrotation
          JOINT RightElbow
          {
            OFFSET -2.6865 -25.0857 1.2959
            CHANNELS 3 Zrotation Xrotation Yrotation
            JOINT RightWrist
            {
              OFFSET -2.3810 -22.8348 1.0329
              CHANNELS 3 Zrotation Xrotation Yrotation
              End Site
              {
                  OFFSET -1.4652 -14.7234 1.0705
              }
            }
          }
        }
      }
      JOINT Neck
      {
        OFFSET -0.0683 16.8828 0.2989
        CHANNELS 3 Zrotation Xrotation Yrotation
        JOINT Head
        {
          OFFSET 0.1300 11.4121 4.7143
          CHANNELS 3 Zrotation Xrotation Yrotation
          End Site
          {
              OFFSET 0.0452 18.0438 0.3379
          }
        }
      }
    }
  }
  JOINT LeftHip
  {
    OFFSET 9.3186 -0.0408 3.5432
    CHANNELS 3 Zrotation Xrotation Yrotation
    JOINT LeftKnee
    {
      OFFSET -0.5435 -48.8357 0.3144
      CHANNELS 3 Zrotation Xrotation Yrotation
      JOINT LeftAnkle
      {
        OFFSET 0.2027 -38.4920 -4.2946
        CHANNELS 3 Zrotation Xrotation Yrotation
        End Site
        {
            OFFSET 1.1879 -7.4484 17.8063
        }
      }
    }
  }
  JOINT RightHip
  {
    OFFSET -10.0712 -0.0749 3.1483
    CHANNELS 3 Zrotation Xrotation Yrotation
    JOINT RightKnee
    {
      OFFSET 0.3157 -48.5179 0.1055
      CHANNELS 3 Zrotation Xrotation Yrotation
      JOINT RightAnkle
      {
        OFFSET -1.1248 -38.4399 -3.4305
        CHANNELS 3 Zrotation Xrotation Yrotation
        End Site
        {
            OFFSET -1.3336 -7.3741 17.3830
        }
      }
    }
  }
}
MOTION
Frames:	29
Frame Time:	0.041667
-0.3059 96.2701 -91.3967 8.58 14.35 0.99 -2.78 13.50 -5.18 -2.74 13.46 -5.16 -0.18 -0.70 0.26 25.06 -32.35 -73.89 9.20 -25.95 -2.43 -0.90 7.71 12.01 -0.74 -0.92 -0.82 -54.67 -38.10 63.97 -12.81 -40.92 3.49 -51.36 55.01 -11.02 -3.45 -12.48 6.34 -4.03 -5.21 6.28 -0.42 -24.71 5.78 -0.03 13.35 0.39 -4.60 3.08 -10.30 -10.98 -28.60 3.52 0.28 28.83 -0.69 2.18 -13.54 -4.53 
-0.2180 96.2320 -91.3582 8.49 14.34 1.35 -2.61 13.31 -5.28 -2.58 13.27 -5.27 -0.18 -0.70 0.26 24.71 -32.11 -73.86 9.19 -26.21 -2.44 -0.55 7.33 13.42 -0.81 -0.98 -0.86 -54.65 -38.16 64.97 -13.04 -40.65 3.33 -51.58 54.50 -10.69 -3.63 -12.39 6.09 -4.18 -5.11 6.03 -0.62 -24.79 4.92 -0.03 13.55 0.40 -4.63 2.81 -9.89 -11.11 -28.50 3.23 0.28 28.95 -0.69 2.25 -13.71 -4.65 
-0.1507 96.2023 -91.3065 8.37 14.28 1.52 -2.52 13.18 -5.28 -2.48 13.14 -5.26 -0.18 -0.70 0.26 24.60 -31.92 -73.96 9.18 -26.49 -2.45 -0.23 7.22 14.23 -0.83 -1.05 -0.84 -54.49 -38.34 65.66 -13.26 -40.55 3.17 -51.64 54.35 -10.01 -3.72 -12.37 5.99 -4.25 -5.08 5.94 -0.65 -24.80 4.51 -0.03 13.77 0.41 -4.64 2.54 -9.68 -11.11 -28.37 3.13 0.29 28.97 -0.69 2.28 -13.77 -4.69 
-0.0946 96.1792 -91.2474 8.25 14.19 1.52 -2.50 13.10 -5.15 -2.47 13.06 -5.13 -0.18 -0.70 0.26 24.56 -31.76 -73.94 9.17 -26.69 -2.46 -0.26 7.33 14.20 -0.82 -1.09 -0.80 -54.26 -38.54 66.04 -13.40 -40.45 3.07 -51.43 54.39 -9.46 -3.67 -12.44 6.02 -4.21 -5.16 5.97 -0.55 -24.76 4.44 -0.03 13.98 0.41 -4.64 2.28 -9.60 -10.99 -28.23 3.18 0.29 28.97 -0.68 2.30 -13.80 -4.71 
-0.0401 96.1655 -91.1875 8.12 14.12 1.45 -2.55 13.04 -4.95 -2.51 13.00 -4.93 -0.18 -0.70 0.26 24.50 -31.64 -73.80 9.18 -26.66 -2.46 -0.63 7.59 13.54 -0.78 -1.10 -0.74 -53.99 -38.70 66.26 -13.43 -40.14 3.06 -50.92 54.58 -9.36 -3.53 -12.59 6.07 -4.08 -5.31 6.01 -0.44 -24.73 4.48 -0.02 14.17 0.41 -4.64 2.04 -9.55 -10.85 -28.12 3.29 0.29 28.89 -0.67 2.33 -13.81 -4.73 
0.0187 96.1631 -91.1367 8.04 14.08 1.39 -2.62 13.00 -4.74 -2.59 12.96 -4.73 -0.18 -0.70 0.26 24.46 -31.60 -73.93 9.19 -26.26 -2.44 -1.10 7.77 12.82 -0.77 -1.10 -0.73 -53.86 -38.82 66.43 -13.43 -39.66 3.06 -49.66 54.81 -10.35 -3.40 -12.77 6.07 -3.94 -5.49 6.01 -0.38 -24.71 4.50 -0.02 14.28 0.41 -4.63 1.86 -9.51 -10.75 -28.04 3.38 0.29 28.82 -0.67 2.36 -13.81 -4.74 
0.0805 96.1682 -91.1078 8.00 14.11 1.38 -2.72 12.94 -4.55 -2.68 12.90 -4.53 -0.18 -0.70 0.26 24.55 -31.63 -74.44 9.21 -25.66 -2.41 -1.39 7.85 12.56 -0.75 -1.09 -0.70 -53.86 -38.95 66.77 -13.39 -38.80 3.10 -47.82 55.18 -12.40 -3.30 -12.96 6.01 -3.84 -5.68 5.94 -0.35 -24.74 4.50 -0.02 14.33 0.41 -4.61 1.77 -9.49 -10.71 -28.03 3.47 0.29 28.77 -0.66 2.42 -13.81 -4.82 
0.1391 96.1692 -91.1095 8.01 14.27 1.45 -2.82 12.89 -4.38 -2.78 12.85 -4.36 -0.18 -0.70 0.26 24.81 -31.70 -75.19 9.23 -25.09 -2.39 -1.50 7.77 12.95 -0.77 -1.09 -0.73 -54.16 -39.10 67.19 -13.42 -37.68 3.10 -45.05 55.49 -15.73 -3.28 -13.15 5.90 -3.81 -5.86 5.84 -0.42 -24.90 4.47 -0.02 14.36 0.42 -4.57 1.72 -9.53 -10.78 -28.16 3.54 0.28 28.81 -0.66 2.46 -13.85 -4.97 
0.1931 96.1557 -91.1396 8.06 14.51 1.63 -2.90 12.85 -4.24 -2.87 12.81 -4.22 -0.18 -0.70 0.26 25.11 -31.77 -75.91 9.24 -24.59 -2.37 -1.53 7.52 13.87 -0.81 -1.11 -0.76 -54.71 -39.19 67.60 -13.50 -36.38 3.06 -41.71 55.62 -19.82 -3.33 -13.33 5.80 -3.84 -6.05 5.74 -0.58 -25.18 4.45 -0.02 14.43 0.42 -4.51 1.70 -9.71 -10.92 -28.42 3.62 0.28 28.96 -0.66 2.51 -13.95 -5.28 
0.2474 96.1326 -91.1858 8.12 14.74 1.84 -2.97 12.82 -4.11 -2.93 12.78 -4.09 -0.18 -0.70 0.26 25.35 -31.83 -76.35 9.26 -24.15 -2.35 -1.54 7.05 15.03 -0.83 -1.12 -0.78 -55.47 -39.12 67.87 -13.60 -35.11 3.00 -38.24 55.51 -24.18 -3.43 -13.51 5.75 -3.94 -6.22 5.69 -0.76 -25.51 4.48 -0.02 14.48 0.43 -4.42 1.71 -10.01 -11.08 -28.71 3.70 0.28 29.17 -0.65 2.57 -14.08 -5.65 
0.3021 96.1145 -91.2328 8.19 14.97 2.10 -3.01 12.83 -4.00 -2.98 12.79 -3.98 -0.18 -0.70 0.26 25.50 -31.87 -76.50 9.27 -23.80 -2.33 -1.45 6.49 15.94 -0.85 -1.13 -0.79 -56.39 -38.85 67.96 -13.68 -34.00 2.96 -35.04 55.22 -28.46 -3.56 -13.65 5.76 -4.07 -6.37 5.69 -0.96 -25.84 4.50 -0.02 14.55 0.44 -4.33 1.78 -10.37 -11.26 -28.97 3.77 0.29 29.37 -0.65 2.62 -14.21 -6.04 
0.3514 96.1110 -91.2686 8.28 15.17 2.38 -3.05 12.89 -3.90 -3.01 12.85 -3.88 -0.18 -0.70 0.26 25.61 -31.85 -76.21 9.27 -23.71 -2.33 -1.24 6.16 16.01 -0.85 -1.10 -0.81 -57.37 -38.41 67.92 -13.67 -33.16 2.98 -32.53 54.97 -32.25 -3.73 -13.76 5.82 -4.25 -6.48 5.75 -1.19 -26.11 4.56 -0.01 14.58 0.44 -4.21 1.92 -10.76 -11.48 -29.15 3.85 0.29 29.52 -0.65 2.68 -14.33 -6.43 
0.4000 96.1226 -91.2902 8.40 15.32 2.62 -3.07 13.00 -3.80 -3.04 12.96 -3.79 -0.18 -0.70 0.26 25.70 -31.75 -75.57 9.27 -23.91 -2.34 -0.96 6.24 15.07 -0.87 -1.06 -0.86 -58.35 -37.81 67.71 -13.60 -32.66 3.04 -30.78 54.72 -35.37 -3.92 -13.82 5.92 -4.45 -6.54 5.86 -1.43 -26.25 4.73 -0.01 14.52 0.45 -4.07 2.13 -11.21 -11.70 -29.26 3.95 0.29 29.61 -0.66 2.75 -14.43 -6.79 
0.4648 96.1428 -91.3034 8.55 15.43 2.78 -3.09 13.14 -3.70 -3.05 13.10 -3.69 -0.18 -0.70 0.26 25.76 -31.65 -74.95 9.25 -24.25 -2.35 -0.64 6.53 13.62 -0.92 -1.01 -0.94 -59.24 -37.06 67.31 -13.50 -32.46 3.12 -29.82 54.49 -37.75 -4.09 -13.82 6.05 -4.63 -6.54 5.98 -1.65 -26.27 5.07 -0.00 14.38 0.45 -3.92 2.36 -11.69 -11.91 -29.32 4.10 0.30 29.66 -0.66 2.81 -14.50 -7.09 
0.5536 96.1623 -91.3206 8.68 15.51 2.83 -3.08 13.29 -3.59 -3.05 13.25 -3.58 -0.18 -0.70 0.26 25.73 -31.62 -74.59 9.24 -24.61 -2.37 -0.32 6.75 12.40 -0.96 -0.96 -1.03 -59.99 -36.14 66.70 -13.39 -32.54 3.21 -29.47 54.35 -39.46 -4.20 -13.77 6.19 -4.76 -6.49 6.12 -1.81 -26.28 5.46 -0.00 14.27 0.45 -3.78 2.53 -12.14 -12.06 -29.37 4.30 0.30 29.70 -0.66 2.88 -14.53 -7.33 
0.6564 96.1744 -91.3554 8.69 15.58 2.77 -3.05 13.43 -3.52 -3.01 13.39 -3.50 -0.18 -0.70 0.26 25.68 -31.66 -74.39 9.23 -25.03 -2.39 -0.06 6.86 11.80 -0.93 -0.90 -1.03 -60.51 -35.22 66.11 -13.30 -32.70 3.29 -29.45 54.43 -40.72 -4.19 -13.67 6.32 -4.76 -6.39 6.25 -1.87 -26.36 5.81 0.01 14.22 0.45 -3.67 2.56 -12.46 -12.12 -29.43 4.55 0.30 29.66 -0.67 2.96 -14.51 -7.54 
0.7726 96.1809 -91.4104 8.62 15.66 2.73 -2.98 13.56 -3.51 -2.94 13.52 -3.49 -0.18 -0.70 0.26 25.69 -31.68 -74.03 9.21 -25.52 -2.41 0.07 6.95 11.66 -0.91 -0.88 -1.02 -60.86 -34.49 65.71 -13.31 -32.84 3.30 -29.32 54.59 -41.90 -4.00 -13.51 6.42 -4.59 -6.24 6.35 -1.84 -26.50 6.00 0.02 14.27 0.46 -3.59 2.47 -12.60 -12.09 -29.50 4.83 0.31 29.53 -0.67 3.06 -14.44 -7.75 
0.9302 96.1917 -91.4662 8.54 15.69 2.68 -2.87 13.72 -3.72 -2.84 13.68 -3.70 -0.18 -0.70 0.26 25.79 -31.65 -73.26 9.20 -26.09 -2.43 0.01 7.23 11.58 -0.87 -0.88 -0.99 -60.92 -34.08 65.63 -13.41 -32.87 3.24 -29.42 54.80 -42.82 -3.71 -13.35 6.49 -4.30 -6.08 6.42 -1.85 -26.61 6.00 0.02 14.36 0.47 -3.50 2.38 -12.59 -12.07 -29.51 5.07 0.33 29.36 -0.67 3.18 -14.34 -7.91 
1.1598 96.2150 -91.4921 8.49 15.60 2.60 -2.77 13.91 -4.05 -2.74 13.87 -4.03 -0.18 -0.70 0.26 25.86 -31.63 -72.46 9.18 -26.41 -2.45 -0.19 7.61 11.40 -0.81 -0.87 -0.94 -60.67 -33.87 65.72 -13.45 -32.82 3.23 -30.11 55.07 -43.14 -3.43 -13.19 6.54 -4.03 -5.91 6.47 -1.95 -26.55 5.88 0.02 14.44 0.48 -3.37 2.33 -12.41 -12.16 -29.35 5.14 0.34 29.11 -0.66 3.33 -14.20 -7.86 
1.4551 96.2469 -91.4733 8.47 15.35 2.38 -2.67 14.11 -4.41 -2.64 14.08 -4.39 -0.18 -0.70 0.26 25.86 -31.66 -71.92 9.19 -26.37 -2.45 -0.40 7.94 11.06 -0.71 -0.83 -0.85 -60.13 -33.67 65.68 -13.35 -32.96 3.32 -31.73 55.47 -42.39 -3.21 -13.02 6.57 -3.82 -5.74 6.50 -2.07 -26.29 5.73 0.03 14.53 0.48 -3.23 2.24 -12.07 -12.31 -29.00 5.05 0.35 28.76 -0.64 3.52 -14.00 -7.54 
1.7793 96.2751 -91.4230 8.39 15.01 1.99 -2.56 14.32 -4.75 -2.53 14.28 -4.73 -0.18 -0.70 0.26 25.81 -31.70 -71.72 9.19 -26.17 -2.44 -0.56 8.20 10.56 -0.60 -0.80 -0.72 -59.45 -33.46 65.44 -13.22 -33.46 3.40 -34.40 55.84 -40.27 -3.10 -12.86 6.60 -3.71 -5.58 6.52 -2.07 -25.94 5.62 0.04 14.67 0.48 -3.12 2.00 -11.55 -12.36 -28.56 4.93 0.35 28.32 -0.62 3.72 -13.73 -6.98 
2.1095 96.2937 -91.3633 8.23 14.68 1.43 -2.43 14.46 -5.02 -2.39 14.42 -5.01 -0.18 -0.70 0.26 25.76 -31.72 -71.75 9.20 -25.98 -2.43 -0.63 8.29 10.14 -0.45 -0.81 -0.54 -58.62 -33.27 65.12 -13.18 -34.26 3.41 -38.06 56.13 -36.58 -3.15 -12.72 6.62 -3.77 -5.44 6.55 -1.92 -25.63 5.56 0.04 14.89 0.49 -3.05 1.59 -10.92 -12.25 -28.17 4.87 0.35 27.84 -0.59 3.91 -13.42 -6.32 
2.4526 96.3058 -91.3053 8.05 14.42 0.73 -2.29 14.53 -5.24 -2.26 14.49 -5.22 -0.18 -0.70 0.26 25.72 -31.68 -71.70 9.20 -26.09 -2.43 -0.72 8.39 9.97 -0.36 -0.88 -0.40 -57.79 -33.26 64.94 -13.35 -35.04 3.28 -41.81 56.06 -32.38 -3.38 -12.65 6.67 -4.00 -5.37 6.60 -1.70 -25.44 5.60 0.04 15.21 0.51 -2.98 1.11 -10.28 -12.09 -27.92 4.94 0.34 27.37 -0.56 4.10 -13.10 -5.66 
2.8188 96.3108 -91.2509 7.96 14.26 -0.11 -2.18 14.54 -5.38 -2.15 14.50 -5.37 -0.18 -0.70 0.26 25.72 -31.62 -71.62 9.19 -26.34 -2.45 -0.88 8.44 10.18 -0.32 -0.97 -0.31 -57.08 -33.43 64.93 -13.61 -35.55 3.08 -44.58 55.79 -29.00 -3.72 -12.67 6.72 -4.34 -5.39 6.66 -1.52 -25.35 5.76 0.03 15.61 0.53 -2.90 0.61 -9.68 -11.95 -27.83 5.16 0.33 26.97 -0.53 4.30 -12.79 -5.02 
3.1968 96.2995 -91.1988 7.94 14.13 -0.97 -2.12 14.49 -5.37 -2.08 14.45 -5.36 -0.18 -0.70 0.26 25.69 -31.71 -71.64 9.18 -26.47 -2.45 -1.10 8.49 10.54 -0.32 -1.02 -0.29 -56.72 -33.72 64.95 -13.78 -35.70 2.96 -45.70 55.61 -27.30 -4.08 -12.76 6.72 -4.71 -5.48 6.66 -1.42 -25.32 6.02 0.03 16.04 0.56 -2.80 0.10 -9.13 -11.88 -27.84 5.50 0.33 26.66 -0.50 4.52 -12.53 -4.43 
3.5665 96.2657 -91.1449 7.97 14.00 -1.81 -2.05 14.49 -5.36 -2.01 14.45 -5.34 -0.18 -0.70 0.26 25.60 -32.03 -71.86 9.18 -26.54 -2.45 -1.29 8.67 10.70 -0.30 -1.04 -0.25 -56.78 -34.10 64.92 -13.86 -35.52 2.90 -45.35 55.57 -27.39 -4.44 -12.92 6.67 -5.06 -5.65 6.61 -1.37 -25.30 6.27 0.03 16.51 0.59 -2.69 -0.43 -8.60 -11.87 -27.89 5.89 0.34 26.53 -0.49 4.75 -12.38 -3.94 
3.9207 96.2140 -91.0812 8.00 13.86 -2.55 -1.97 14.51 -5.14 -1.94 14.47 -5.13 -0.18 -0.70 0.26 25.38 -32.62 -72.44 9.19 -26.35 -2.45 -1.35 8.91 10.75 -0.32 -1.04 -0.29 -57.38 -34.27 64.57 -13.85 -35.38 2.91 -44.27 55.56 -28.31 -4.68 -13.15 6.55 -5.28 -5.88 6.48 -1.38 -25.28 6.40 0.03 17.00 0.61 -2.58 -0.98 -8.06 -11.89 -27.91 6.28 0.34 26.50 -0.48 4.98 -12.33 -3.60 
4.2582 96.1539 -91.0018 8.06 13.71 -3.08 -1.90 14.57 -4.87 -1.87 14.53 -4.86 -0.18 -0.70 0.26 25.05 -33.40 -73.32 9.19 -26.14 -2.44 -1.22 8.98 10.95 -0.36 -1.02 -0.34 -58.17 -34.07 63.88 -13.81 -35.47 2.94 -43.45 55.43 -29.06 -4.72 -13.37 6.40 -5.31 -6.09 6.33 -1.52 -25.28 6.29 0.03 17.50 0.64 -2.47 -1.48 -7.53 -11.96 -27.92 6.66 0.36 26.55 -0.47 5.20 -12.38 -3.42 
4.5636 96.0931 -90.9038 8.12 13.56 -3.33 -1.84 14.64 -4.59 -1.81 14.60 -4.57 -0.18 -0.70 0.26 24.68 -34.18 -74.24 9.20 -25.99 -2.43 -0.98 8.75 11.43 -0.43 -0.99 -0.44 -58.85 -33.49 62.90 -13.73 -35.87 2.98 -43.37 55.18 -29.00 -4.56 -13.49 6.28 -5.13 -6.21 6.21 -1.76 -25.28 5.97 0.03 18.01 0.68 -2.33 -1.88 -7.13 -12.10 -27.85 6.93 0.37 26.68 -0.46 5.40 -12.52 -3.40 
